<svg width="24" height="18" viewBox="0 0 24 18" fill="none" xmlns="http://www.w3.org/2000/svg">
<path d="M23.2969 6.72648H5.59198L5.98399 6.33447C6.25858 6.05989 6.25858 5.61472 5.98399 5.34013C5.70945 5.06555 5.26424 5.06555 4.98965 5.34013L4.64457 5.68522V2.85932C4.64457 2.1744 5.2018 1.61716 5.88673 1.61716C6.57165 1.61716 7.12889 2.1744 7.12889 2.85932C7.12889 3.24763 7.4437 3.56243 7.832 3.56243C8.22031 3.56243 8.53511 3.24763 8.53511 2.85932C8.53511 1.39901 7.34704 0.210938 5.88673 0.210938C4.42641 0.210938 3.23834 1.39901 3.23834 2.85932V5.68522L2.89326 5.34013C2.61871 5.06555 2.1735 5.06555 1.89892 5.34013C1.62433 5.61472 1.62433 6.05989 1.89892 6.33447L2.29092 6.72648H0.703111C0.314806 6.72648 0 7.04129 0 7.42959C0 7.8179 0.314806 8.13271 0.703111 8.13271H0.967622C1.33183 9.51146 1.6967 10.8901 2.06237 12.2685C2.50603 13.9407 3.66565 15.2259 5.17031 15.8414L4.52035 16.6427C4.27571 16.9443 4.32193 17.3871 4.62347 17.6317C4.75374 17.7373 4.91034 17.7888 5.06596 17.7888C5.27057 17.7888 5.47349 17.6998 5.61242 17.5286L6.67876 16.214C6.85923 16.2318 7.04199 16.2419 7.22728 16.2419H16.7745C16.9616 16.2419 17.1461 16.2316 17.3283 16.2135L18.3951 17.5286C18.5341 17.6999 18.7369 17.7888 18.9415 17.7888C19.0972 17.7888 19.2538 17.7374 19.384 17.6317C19.6856 17.3871 19.7318 16.9443 19.4872 16.6427L18.8358 15.8398C20.3389 15.2234 21.497 13.9385 21.9399 12.2669C22.3349 10.7759 22.696 9.41766 23.0388 8.13275H23.2968C23.6851 8.13275 23.9999 7.81795 23.9999 7.42964C23.9999 7.04134 23.6852 6.72648 23.2969 6.72648ZM20.5806 11.9067C20.1165 13.6586 18.5869 14.8357 16.7745 14.8357H7.22733C5.4156 14.8357 3.88619 13.6591 3.42157 11.9079C3.08778 10.6497 2.75442 9.39132 2.4218 8.13275H21.5835C21.2693 9.31112 20.9389 10.5544 20.5806 11.9067Z" fill="#707C80"/>
</svg>
