<svg xmlns="http://www.w3.org/2000/svg" width="74.89" height="56.236" viewBox="0 0 74.89 56.236">
  <g id="Group_2057" data-name="Group 2057" transform="translate(-495.453 -27105.268)">
    <path id="Path_2199" data-name="Path 2199" d="M40.063,45.437a27,27,0,0,1-10-20A26.377,26.377,0,0,1,38.35,6.95a2.45,2.45,0,0,1,3.43,0,26.39,26.39,0,0,1,8.283,18.487,27,27,0,0,1-10,20Z" transform="translate(492.507 27100.75)" fill="none" stroke="#837f89" stroke-linecap="round" stroke-linejoin="round" stroke-width="3"/>
    <path id="Path_2200" data-name="Path 2200" d="M49.8,21.937A28.517,28.517,0,0,1,66,17a2.493,2.493,0,0,1,2.49,2.48,26.353,26.353,0,0,1-7.213,18.877,27,27,0,0,1-21.213,7.07" transform="translate(492.507 27100.75)" fill="none" stroke="#837f89" stroke-linecap="round" stroke-linejoin="round" stroke-width="3"/>
    <path id="Path_2201" data-name="Path 2201" d="M30.333,21.973A28.28,28.28,0,0,0,14,17a2.5,2.5,0,0,0-2.5,2.48,26.353,26.353,0,0,0,7.2,18.887,27.273,27.273,0,0,0,21.357,7.07" transform="translate(492.507 27100.75)" fill="none" stroke="#837f89" stroke-linecap="round" stroke-linejoin="round" stroke-width="3"/>
    <g id="Group_2056" data-name="Group 2056" transform="translate(1)">
      <path id="Path_2202" data-name="Path 2202" d="M11649.095,12000.113s-18.141,12.555,0,24.217a42.34,42.34,0,0,0,16.563,6.142c3.956.635,9.2.421,14.838.5" transform="translate(-11145 15129)" fill="none" stroke="#837f89" stroke-width="3"/>
      <path id="Path_2203" data-name="Path 2203" d="M11672.433,12000.113s18.141,12.555,0,24.217c-5.1,3.208-13.435,7.05-28.387,6.646-.5.018-2.2-.012-3.014,0" transform="translate(-11112.733 15129)" fill="none" stroke="#837f89" stroke-width="3"/>
    </g>
  </g>
</svg>
