<svg xmlns="http://www.w3.org/2000/svg" width="35.51" height="30.194" viewBox="0 0 35.51 30.194"><g transform="translate(0.681 0.519)"><path d="M19.7,38.017a.742.742,0,0,1-1.066,0L4.61,23.58a8.418,8.418,0,0,1-1.616-9.811h0a8.672,8.672,0,0,1,13.792-2.21l2.376,2.167,2.376-2.167a8.67,8.67,0,0,1,13.791,2.21h0a8.421,8.421,0,0,1-1.614,9.811Z" transform="translate(-2.087 -9.068)" fill="none" stroke="#837f89" stroke-linecap="round" stroke-linejoin="round" stroke-width="1"/><path d="M48.137,38.342a4.278,4.278,0,1,0-5.989,3.917v3.783a1.711,1.711,0,1,0,3.422,0V42.259A4.278,4.278,0,0,0,48.137,38.342Z" transform="translate(-26.784 -26.085)" fill="none" stroke="#837f89" stroke-linecap="round" stroke-linejoin="round" stroke-width="1"/></g></svg>