<svg width="22" height="23" viewBox="0 0 22 23" fill="none" xmlns="http://www.w3.org/2000/svg">
<path d="M20.9389 18.6344C20.2863 18.0525 19.7149 17.3855 19.2401 16.6513C18.7218 15.6378 18.4112 14.531 18.3264 13.3958V10.0524C18.3309 8.26939 17.6841 6.54613 16.5076 5.20638C15.3312 3.86662 13.7059 3.0026 11.9373 2.77663V1.90355C11.9373 1.66391 11.8421 1.43409 11.6727 1.26464C11.5032 1.09519 11.2734 1 11.0338 1C10.7941 1 10.5643 1.09519 10.3949 1.26464C10.2254 1.43409 10.1302 1.66391 10.1302 1.90355V2.79017C8.37744 3.03242 6.77184 3.90167 5.61081 5.23692C4.44977 6.57217 3.81198 8.28295 3.81554 10.0524V13.3958C3.73078 14.531 3.42013 15.6378 2.90185 16.6513C2.43544 17.3839 1.87322 18.0508 1.23012 18.6344C1.15792 18.6978 1.10006 18.7759 1.06038 18.8634C1.02071 18.9509 1.00012 19.0459 1 19.142V20.0624C1 20.2419 1.07131 20.4141 1.19823 20.541C1.32516 20.6679 1.49731 20.7393 1.67681 20.7393H20.4922C20.6717 20.7393 20.8439 20.6679 20.9708 20.541C21.0977 20.4141 21.169 20.2419 21.169 20.0624V19.142C21.1689 19.0459 21.1483 18.9509 21.1086 18.8634C21.069 18.7759 21.0111 18.6978 20.9389 18.6344ZM2.40777 19.3856C3.03748 18.7773 3.59192 18.0956 4.0592 17.3552C4.71206 16.1312 5.09298 14.7806 5.17594 13.3958V10.0524C5.1491 9.25917 5.28215 8.46868 5.56717 7.72797C5.85219 6.98726 6.28335 6.31148 6.83497 5.74087C7.3866 5.17026 8.04741 4.71649 8.77806 4.40659C9.50871 4.09668 10.2942 3.93697 11.0879 3.93697C11.8816 3.93697 12.6671 4.09668 13.3977 4.40659C14.1284 4.71649 14.7892 5.17026 15.3408 5.74087C15.8925 6.31148 16.3236 6.98726 16.6086 7.72797C16.8937 8.46868 17.0267 9.25917 16.9999 10.0524V13.3958C17.0828 14.7806 17.4637 16.1312 18.1166 17.3552C18.5839 18.0956 19.1383 18.7773 19.768 19.3856H2.40777Z" fill="#323232" stroke="#323232" stroke-width="0.3"/>
<path d="M11.1185 23.0002C11.5449 22.9903 11.954 22.8301 12.2736 22.5477C12.5932 22.2653 12.8025 21.8789 12.8647 21.457H9.30469C9.36863 21.8904 9.58781 22.2858 9.92147 22.5697C10.2551 22.8535 10.6805 23.0065 11.1185 23.0002Z" fill="#323232"/>
</svg>
