<svg width="55" height="55" viewBox="0 0 55 55" fill="none" xmlns="http://www.w3.org/2000/svg">
<circle cx="27.5" cy="27.5" r="27.5" fill="#E83B3B" fill-opacity="0.1"/>
<path d="M39.2135 36.4732C38.4377 35.7816 37.7585 34.9887 37.1942 34.116C36.5781 32.9113 36.2089 31.5956 36.1081 30.2463V26.272C36.1134 24.1526 35.3447 22.1042 33.9462 20.5117C32.5477 18.9192 30.6159 17.8921 28.5136 17.6236V16.5857C28.5136 16.3009 28.4004 16.0277 28.199 15.8263C27.9976 15.6249 27.7244 15.5117 27.4395 15.5117C27.1547 15.5117 26.8815 15.6249 26.6801 15.8263C26.4787 16.0277 26.3655 16.3009 26.3655 16.5857V17.6396C24.282 17.9276 22.3735 18.9609 20.9934 20.548C19.6133 22.1352 18.8552 24.1688 18.8595 26.272V30.2463C18.7587 31.5956 18.3894 32.9113 17.7734 34.116C17.219 34.9867 16.5507 35.7795 15.7862 36.4732C15.7004 36.5486 15.6316 36.6414 15.5845 36.7454C15.5373 36.8495 15.5128 36.9623 15.5127 37.0766V38.1707C15.5127 38.3841 15.5975 38.5887 15.7483 38.7396C15.8992 38.8905 16.1038 38.9752 16.3172 38.9752H38.6825C38.8959 38.9752 39.1005 38.8905 39.2514 38.7396C39.4023 38.5887 39.4871 38.3841 39.4871 38.1707V37.0766C39.4869 36.9623 39.4624 36.8495 39.4153 36.7454C39.3681 36.6414 39.2993 36.5486 39.2135 36.4732ZM17.1861 37.3662C17.9346 36.6431 18.5936 35.8328 19.1491 34.9527C19.9251 33.4977 20.3779 31.8923 20.4765 30.2463V26.272C20.4446 25.3292 20.6028 24.3895 20.9416 23.5091C21.2804 22.6286 21.7929 21.8253 22.4486 21.1471C23.1043 20.4688 23.8898 19.9294 24.7583 19.561C25.6268 19.1927 26.5605 19.0028 27.5039 19.0028C28.4473 19.0028 29.381 19.1927 30.2495 19.561C31.118 19.9294 31.9035 20.4688 32.5592 21.1471C33.2149 21.8253 33.7274 22.6286 34.0662 23.5091C34.405 24.3895 34.5632 25.3292 34.5313 26.272V30.2463C34.6299 31.8923 35.0827 33.4977 35.8587 34.9527C36.4142 35.8328 37.0732 36.6431 37.8217 37.3662H17.1861Z" fill="#E83B3B" stroke="#E83B3B" stroke-width="0.3"/>
<path d="M27.5401 41.6624C28.0469 41.6507 28.5332 41.4602 28.9131 41.1245C29.2929 40.7888 29.5418 40.3296 29.6157 39.8281H25.384C25.46 40.3433 25.7206 40.8133 26.1172 41.1507C26.5138 41.4881 27.0195 41.6699 27.5401 41.6624Z" fill="#E83B3B"/>
</svg>
