<svg width="24" height="20" viewBox="0 0 24 20" fill="none" xmlns="http://www.w3.org/2000/svg">
<path d="M22.8284 10.0321V9.57498C22.8284 8.73297 22.3924 7.99127 21.7348 7.56236V2.57636C21.7348 1.26452 20.6675 0.197266 19.3557 0.197266H4.64433C3.33248 0.197266 2.26519 1.26452 2.26519 2.57636V7.56231C1.60753 7.99122 1.17159 8.73292 1.17159 9.57494V10.032C0.498187 10.2093 0 10.8234 0 11.5517V16.9C0 17.7414 0.664781 18.4303 1.49667 18.4695V19.1024C1.49667 19.49 1.81088 19.8042 2.19844 19.8042C2.586 19.8042 2.9002 19.49 2.9002 19.1024V18.4713H21.0998V19.1024C21.0998 19.49 21.414 19.8042 21.8015 19.8042C22.1891 19.8042 22.5033 19.49 22.5033 19.1024V18.4695C23.3352 18.4303 24 17.7414 24 16.9V11.5517C24 10.8234 23.5018 10.2093 22.8284 10.0321ZM3.66877 2.57636C3.66877 2.03842 4.10639 1.6008 4.64433 1.6008H19.3557C19.8936 1.6008 20.3312 2.03842 20.3312 2.57636V7.17325H19.3955V5.93631C19.3955 5.07053 18.6912 4.36614 17.8253 4.36614H14.0492C13.1834 4.36614 12.479 5.07053 12.479 5.93631V7.17325H11.521V5.93631C11.521 5.07053 10.8166 4.36614 9.95081 4.36614H6.17466C5.30883 4.36614 4.60448 5.07053 4.60448 5.93631V7.17325H3.66877V2.57636ZM17.9919 5.93627V7.00661C17.9919 7.09848 17.9172 7.1732 17.8253 7.1732H14.0492C13.9573 7.1732 13.8826 7.09844 13.8826 7.00661V5.93627C13.8826 5.84439 13.9574 5.76967 14.0492 5.76967H17.8253C17.9172 5.76967 17.9919 5.84439 17.9919 5.93627ZM10.1174 5.93627V7.00661C10.1174 7.09848 10.0426 7.1732 9.95081 7.1732H6.17466C6.08278 7.1732 6.00806 7.09844 6.00806 7.00661V5.93627C6.00806 5.84439 6.08283 5.76967 6.17466 5.76967H9.95081C10.0426 5.76967 10.1174 5.84439 10.1174 5.93627ZM2.57517 9.57494C2.57517 9.02453 3.02297 8.57678 3.57338 8.57678H20.4266C20.977 8.57678 21.4248 9.02458 21.4248 9.57494V9.98031H2.57517V9.57494ZM22.5964 16.9C22.5964 16.9925 22.5211 17.0678 22.4286 17.0678H1.57139C1.47886 17.0678 1.40353 16.9925 1.40353 16.9V11.5517C1.40353 11.4592 1.47881 11.3839 1.57139 11.3839H22.4286C22.5211 11.3839 22.5965 11.4592 22.5965 11.5517V16.9H22.5964Z" fill="#707C80"/>
</svg>
