<svg width="24" height="24" viewBox="0 0 24 24" fill="none" xmlns="http://www.w3.org/2000/svg">
<path d="M21.7493 18.1051V5.89404C23.0408 5.5588 23.9992 4.39637 23.9992 2.9999C23.9992 1.34321 22.656 0 20.9993 0C19.6029 0 18.4404 0.958478 18.1051 2.24993H5.89404C5.5588 0.958478 4.39637 0 2.9999 0C1.34321 0 0 1.34321 0 2.9999C0 4.39637 0.958478 5.5588 2.24993 5.89404V18.1059C0.958478 18.4404 0 19.6028 0 20.9993C0 22.656 1.34321 23.9992 2.9999 23.9992C4.39637 23.9992 5.5588 23.0408 5.89404 21.7493H18.1059C18.4404 23.0408 19.6036 23.9992 21.0001 23.9992C22.6568 23.9992 24 22.656 24 20.9993C23.9992 19.6028 23.0408 18.4404 21.7493 18.1051ZM20.9993 1.49995C21.828 1.49995 22.4993 2.17118 22.4993 2.9999C22.4993 3.82862 21.828 4.49985 20.9993 4.49985C20.1706 4.49985 19.4994 3.82862 19.4994 2.9999C19.4994 2.17118 20.1706 1.49995 20.9993 1.49995ZM1.49995 2.9999C1.49995 2.17118 2.17118 1.49995 2.9999 1.49995C3.82862 1.49995 4.49985 2.17118 4.49985 2.9999C4.49985 3.82862 3.82862 4.49985 2.9999 4.49985C2.17118 4.49985 1.49995 3.82862 1.49995 2.9999ZM2.9999 22.4993C2.17118 22.4993 1.49995 21.828 1.49995 20.9993C1.49995 20.1706 2.17118 19.4994 2.9999 19.4994C3.82862 19.4994 4.49985 20.1706 4.49985 20.9993C4.49985 21.828 3.82862 22.4993 2.9999 22.4993ZM18.1051 20.2493H5.89404C5.62182 19.1986 4.80059 18.3774 3.74988 18.1051V5.89404C4.80059 5.62182 5.62182 4.80059 5.89404 3.74988H18.1059C18.3774 4.80059 19.1986 5.62182 20.2493 5.89404V18.1059C19.1986 18.3774 18.3774 19.1986 18.1051 20.2493ZM20.9993 22.4993C20.1706 22.4993 19.4994 21.828 19.4994 20.9993C19.4994 20.1706 20.1706 19.4994 20.9993 19.4994C21.828 19.4994 22.4993 20.1706 22.4993 20.9993C22.4993 21.828 21.828 22.4993 20.9993 22.4993Z" fill="#707C80"/>
</svg>
