<svg xmlns="http://www.w3.org/2000/svg" width="79.059" height="78.529" viewBox="0 0 79.059 78.529">
  <g id="streamline-icon-team-meeting_80x80" data-name="streamline-icon-team-meeting@80x80" transform="translate(-0.467 -1)">
    <path id="Path_2110" data-name="Path 2110" d="M6.247,58.75A8.75,8.75,0,1,0,15,50a8.75,8.75,0,0,0-8.75,8.75Z" fill="none" stroke="#837f89" stroke-linecap="round" stroke-linejoin="round" stroke-width="3"/>
    <path id="Path_2111" data-name="Path 2111" d="M27.5,77.5a14.167,14.167,0,0,0-25,0" fill="none" stroke="#837f89" stroke-linecap="round" stroke-linejoin="round" stroke-width="3"/>
    <path id="Path_2112" data-name="Path 2112" d="M56.247,58.75A8.75,8.75,0,1,0,65,50,8.75,8.75,0,0,0,56.247,58.75Z" fill="none" stroke="#837f89" stroke-linecap="round" stroke-linejoin="round" stroke-width="3"/>
    <path id="Path_2113" data-name="Path 2113" d="M77.5,77.5a14.167,14.167,0,0,0-25,0" fill="none" stroke="#837f89" stroke-linecap="round" stroke-linejoin="round" stroke-width="3"/>
    <path id="Path_2114" data-name="Path 2114" d="M31.247,11.25A8.75,8.75,0,1,0,40,2.5a8.75,8.75,0,0,0-8.75,8.75Z" fill="none" stroke="#837f89" stroke-linecap="round" stroke-linejoin="round" stroke-width="3"/>
    <path id="Path_2115" data-name="Path 2115" d="M50.827,27.5a14.23,14.23,0,0,0-21.667,0" fill="none" stroke="#837f89" stroke-linecap="round" stroke-linejoin="round" stroke-width="3"/>
    <path id="Path_2116" data-name="Path 2116" d="M30.167,65.69a27.59,27.59,0,0,0,19.813-.06" fill="none" stroke="#837f89" stroke-linecap="round" stroke-linejoin="round" stroke-width="3"/>
    <path id="Path_2117" data-name="Path 2117" d="M21.16,20a27.39,27.39,0,0,0-8.667,20c0,.843.05,1.667.127,2.5" fill="none" stroke="#837f89" stroke-linecap="round" stroke-linejoin="round" stroke-width="3"/>
    <path id="Path_2118" data-name="Path 2118" d="M67.37,42.5c.073-.827.127-1.667.127-2.5A27.38,27.38,0,0,0,58.83,20" fill="none" stroke="#837f89" stroke-linecap="round" stroke-linejoin="round" stroke-width="3"/>
  </g>
</svg>
